# xmcd
#
# Track frame offsets: 
#        150
#        32600
#        54217
#        70760
#        93655
#        115632
#        141307
#        161682
#        187870
#        210900
#        237347
#        257540
#        287985
#
# Disc length: 4106 seconds
#
# Revision: 3
# Processed by: cddbd v1.5.1PL0 Copyright (c) Steve Scherf et al.
# Submitted via: ExactAudioCopy v0.95a5
#
DISCID=ae10080d
DTITLE=Earl.Perkins.Jones.Smith - Eye to Eye
DYEAR=1996
DGENRE=Blues
TTITLE0=How Long
TTITLE1=Country Girl
TTITLE2='Tops Boogie Woogie
TTITLE3=Eye to Eye
TTITLE4='Yonders Wall
TTITLE5=Ronnies Blues
TTITLE6=Shake for Me
TTITLE7=Miss Ida B.
TTITLE8=Kidney Stew
TTITLE9=I Woke Up This Morning
TTITLE10=Take It Easy Baby
TTITLE11=Anna Lee
TTITLE12=Forty Four Blues
EXTD=
EXTT0=Menphis Slim  - LudlowMusic BMI\n
EXTT1=Little Willie John\n
EXTT2=Willie Pinetop Perkins - BMI\n
EXTT3=Willie Smith Rodai Music BMI\n
EXTT4=Ellmore James ARC Music BMI\n
EXTT5=Willie Pinetop Perkins\n
EXTT6=Willie Dixon  Bug Music BMI\n
EXTT7=Roosevelt Skynes Prestige Music BMI\n
EXTT8=Vinson, Blackman - Cherio Corp - BMI\n
EXTT9=Willie Smith Radai Music BMI\n
EXTT10=Sonny boy Willianson - Arc Music BMI\n
EXTT11=Robert McCullum - Arc Music BMI\n
EXTT12=Roosevelt sykes - Prestige Music - BMI\n
PLAYORDER=
